<svg width="934" height="934" viewBox="0 0 934 934" fill="none" xmlns="http://www.w3.org/2000/svg">
<g clip-path="url(#clip0_2620_9143)">
<path d="M723.774 700.545C720.995 705.562 714.31 707.841 708.362 709.537L640.568 728.688C634.606 730.37 627.185 731.746 622.21 728.883C617.234 726.02 614.774 719.029 613.19 713.109C514.725 345.875 501.146 266.714 461.538 266.714C421.929 266.714 408.31 345.931 309.886 713.109C308.288 719.029 305.717 726.047 300.852 728.883C295.988 731.718 288.428 730.37 282.466 728.688L214.686 709.537C208.738 707.841 202.053 705.562 199.288 700.545C196.522 695.528 197.717 688.162 199.288 682.381C299.921 308.448 356.332 202.798 461.538 202.798C566.744 202.798 623.127 308.421 723.76 682.381C725.331 688.162 726.47 695.681 723.774 700.545Z" fill="#FDB913"/>
<path d="M784.021 464.353C784.021 468.522 783.215 470.246 781.589 474.735L778.81 482.448C777.211 486.909 774.904 491.537 771.013 493.705C767.121 495.873 761.59 495.567 756.921 494.539C574.86 454.124 389.02 546.892 311.276 715.346C308.496 721.447 304.091 730.55 294.196 730.55C290.232 730.534 286.294 729.906 282.522 728.688L214.728 709.551H214.589C206.737 707.327 197.704 704.297 197.704 693.707C197.704 689.413 199.399 684.827 201.359 680.588C301.422 465.951 550.678 366.04 770.568 450.483C775.738 452.457 784.021 455.681 784.021 464.353Z" fill="url(#paint0_linear_2620_9143)"/>
</g>
<defs>
<linearGradient id="paint0_linear_2620_9143" x1="197.648" y1="575.549" x2="784.021" y2="575.549" gradientUnits="userSpaceOnUse">
<stop offset="0.3" stop-color="#FDB913"/>
<stop offset="0.75" stop-color="#F7941F"/>
</linearGradient>
<clipPath id="clip0_2620_9143">
<rect width="933.333" height="933.333" fill="white" transform="translate(0.333496)"/>
</clipPath>
</defs>
</svg>
